<svg  viewBox="0 0 199 44" fill="none" xmlns="http://www.w3.org/2000/svg">
  
<!-- 
  <svg  viewBox="0 0 143 34" fill="none" xmlns="http://www.w3.org/2000/svg">
<path d="M0.876404 6.81818V33H4.63493V14.0412H4.87782L12.5994 32.9616H15.7187L23.4403 14.054H23.6832V33H27.4417V6.81818H22.6477L14.3125 27.1705H14.0057L5.67044 6.81818H0.876404Z" fill="white"/>
<path d="M42.0092 33.3963C46.2919 33.3963 49.3217 31.2869 50.191 28.0909L46.5731 27.4389C45.8828 29.2926 44.2209 30.2386 42.0476 30.2386C38.7748 30.2386 36.576 28.1165 36.4737 24.3324H50.4339V22.9773C50.4339 15.8821 46.1896 13.108 41.7408 13.108C36.2692 13.108 32.664 17.2756 32.664 23.3097C32.664 29.4077 36.218 33.3963 42.0092 33.3963ZM36.4865 21.4688C36.6399 18.6818 38.6598 16.2656 41.7663 16.2656C44.7322 16.2656 46.6754 18.4645 46.6882 21.4688H36.4865Z" fill="white"/>
<path d="M69.3895 18.1577C68.5969 15.1023 66.2063 13.108 61.962 13.108C57.5259 13.108 54.381 15.4474 54.381 18.9247C54.381 21.7116 56.0685 23.5653 59.7503 24.3835L63.0742 25.1122C64.9662 25.5341 65.8484 26.3778 65.8484 27.6051C65.8484 29.1264 64.2248 30.3153 61.7191 30.3153C59.4307 30.3153 57.9606 29.331 57.5003 27.4006L53.8057 27.9631C54.4449 31.4403 57.3341 33.3963 61.7447 33.3963C66.4876 33.3963 69.7731 30.8778 69.7731 27.3239C69.7731 24.5497 68.0089 22.8366 64.4037 22.0057L61.2844 21.2898C59.1239 20.7784 58.1907 20.0497 58.2035 18.7202C58.1907 17.2116 59.827 16.1378 62.0003 16.1378C64.3782 16.1378 65.4776 17.4545 65.9251 18.7713L69.3895 18.1577Z" fill="white"/>
<path d="M83.142 13.3636H79.115V8.65909H75.2926V13.3636H72.4162V16.4318H75.2926V28.027C75.2798 31.5938 78.0028 33.3196 81.0199 33.2557C82.2344 33.2429 83.0525 33.0128 83.5 32.8466L82.8096 29.6889C82.554 29.7401 82.081 29.8551 81.4673 29.8551C80.2273 29.8551 79.115 29.446 79.115 27.2344V16.4318H83.142V13.3636Z" fill="white"/>
<path d="M95.4307 33.3963C100.966 33.3963 104.584 29.3438 104.584 23.2713C104.584 17.1605 100.966 13.108 95.4307 13.108C89.8952 13.108 86.2773 17.1605 86.2773 23.2713C86.2773 29.3438 89.8952 33.3963 95.4307 33.3963ZM95.4435 30.1875C91.8256 30.1875 90.1381 27.0298 90.1381 23.2585C90.1381 19.5 91.8256 16.304 95.4435 16.304C99.0359 16.304 100.723 19.5 100.723 23.2585C100.723 27.0298 99.0359 30.1875 95.4435 30.1875Z" fill="white"/>

<path d="M108.057 9H109.114V5.59091H111.023C111.099 5.59091 111.172 5.59091 111.244 5.58665L113.085 9H114.312L112.339 5.39489C113.452 5.01562 113.972 4.10795 113.972 2.94886C113.972 1.40625 113.051 0.272727 111.006 0.272727H108.057V9ZM109.114 4.63636V1.21023H110.972C112.386 1.21023 112.932 1.90057 112.932 2.94886C112.932 3.99716 112.386 4.63636 110.989 4.63636H109.114Z" fill="white"/>
<path d="M119.721 6.32386C119.721 7.55114 118.784 8.11364 118.034 8.11364C117.198 8.11364 116.602 7.5 116.602 6.54545V2.45455H115.596V6.61364C115.596 8.28409 116.483 9.08523 117.71 9.08523C118.698 9.08523 119.346 8.55682 119.653 7.89205H119.721V9H120.727V2.45455H119.721V6.32386Z" fill="white"/>
<path d="M127.205 3.92045C126.89 2.99148 126.183 2.36932 124.887 2.36932C123.506 2.36932 122.484 3.15341 122.484 4.26136C122.484 5.16477 123.021 5.76989 124.222 6.05114L125.313 6.30682C125.974 6.46023 126.285 6.77557 126.285 7.22727C126.285 7.78977 125.688 8.25 124.751 8.25C123.928 8.25 123.413 7.89631 123.234 7.19318L122.279 7.43182C122.513 8.54403 123.43 9.13636 124.768 9.13636C126.289 9.13636 127.325 8.3054 127.325 7.17614C127.325 6.2642 126.754 5.68892 125.586 5.40341L124.614 5.16477C123.839 4.97301 123.489 4.71307 123.489 4.21023C123.489 3.64773 124.086 3.23864 124.887 3.23864C125.765 3.23864 126.127 3.72443 126.302 4.17614L127.205 3.92045Z" fill="white"/>
<path d="M133.475 3.92045C133.159 2.99148 132.452 2.36932 131.157 2.36932C129.776 2.36932 128.753 3.15341 128.753 4.26136C128.753 5.16477 129.29 5.76989 130.492 6.05114L131.583 6.30682C132.243 6.46023 132.554 6.77557 132.554 7.22727C132.554 7.78977 131.958 8.25 131.02 8.25C130.198 8.25 129.682 7.89631 129.503 7.19318L128.549 7.43182C128.783 8.54403 129.699 9.13636 131.037 9.13636C132.559 9.13636 133.594 8.3054 133.594 7.17614C133.594 6.2642 133.023 5.68892 131.855 5.40341L130.884 5.16477C130.108 4.97301 129.759 4.71307 129.759 4.21023C129.759 3.64773 130.355 3.23864 131.157 3.23864C132.034 3.23864 132.397 3.72443 132.571 4.17614L133.475 3.92045Z" fill="white"/>
<path d="M135.108 9H136.114V2.45455H135.108V9ZM135.619 1.36364C136.011 1.36364 136.335 1.05682 136.335 0.681818C136.335 0.306818 136.011 0 135.619 0C135.227 0 134.903 0.306818 134.903 0.681818C134.903 1.05682 135.227 1.36364 135.619 1.36364Z" fill="white"/>
<path d="M139.882 9.15341C141.024 9.15341 141.62 8.53977 141.825 8.11364H141.876V9H142.882V4.6875C142.882 2.60795 141.296 2.36932 140.461 2.36932C139.473 2.36932 138.348 2.71023 137.836 3.90341L138.791 4.24432C139.012 3.76705 139.537 3.25568 140.495 3.25568C141.42 3.25568 141.876 3.74574 141.876 4.58523V4.61932C141.876 5.10511 141.382 5.0625 140.189 5.21591C138.974 5.37358 137.649 5.64205 137.649 7.14205C137.649 8.42045 138.637 9.15341 139.882 9.15341ZM140.035 8.25C139.234 8.25 138.654 7.89205 138.654 7.19318C138.654 6.42614 139.353 6.1875 140.137 6.08523C140.564 6.03409 141.706 5.91477 141.876 5.71023V6.63068C141.876 7.44886 141.228 8.25 140.035 8.25Z" fill="white"/>
-->

  <path d="M137.881 4.5H136.56C136.482 4.12002 136.345 3.78622 136.15 3.49858C135.958 3.21093 135.723 2.96946 135.446 2.77414C135.173 2.57528 134.869 2.42613 134.536 2.3267C134.202 2.22727 133.854 2.17755 133.491 2.17755C132.831 2.17755 132.233 2.34446 131.696 2.67826C131.164 3.01207 130.739 3.5039 130.423 4.15376C130.111 4.80362 129.955 5.60085 129.955 6.54545C129.955 7.49005 130.111 8.28728 130.423 8.93714C130.739 9.587 131.164 10.0788 131.696 10.4126C132.233 10.7464 132.831 10.9133 133.491 10.9133C133.854 10.9133 134.202 10.8636 134.536 10.7642C134.869 10.6648 135.173 10.5174 135.446 10.3221C135.723 10.1232 135.958 9.87997 136.15 9.59233C136.345 9.30113 136.482 8.96733 136.56 8.59091H137.881C137.781 9.14843 137.6 9.64737 137.337 10.0877C137.075 10.5281 136.748 10.9027 136.357 11.2116C135.967 11.517 135.528 11.7496 135.042 11.9094C134.559 12.0692 134.042 12.1491 133.491 12.1491C132.561 12.1491 131.734 11.9219 131.009 11.4673C130.285 11.0128 129.715 10.3665 129.299 9.52841C128.884 8.69034 128.676 7.69602 128.676 6.54545C128.676 5.39488 128.884 4.40056 129.299 3.5625C129.715 2.72443 130.285 2.07812 131.009 1.62358C131.734 1.16903 132.561 0.941757 133.491 0.941757C134.042 0.941757 134.559 1.02166 135.042 1.18146C135.528 1.34126 135.967 1.57564 136.357 1.88458C136.748 2.18998 137.075 2.56285 137.337 3.00319C137.6 3.43998 137.781 3.93892 137.881 4.5Z" fill="white"/>
  <path d="M139.845 12V3.81818H141.059V5.05397H141.145C141.294 4.64914 141.564 4.32066 141.954 4.06853C142.345 3.8164 142.785 3.69034 143.275 3.69034C143.368 3.69034 143.483 3.69211 143.622 3.69566C143.76 3.69921 143.865 3.70454 143.936 3.71164V4.99005C143.893 4.9794 143.796 4.96342 143.643 4.94211C143.494 4.91725 143.336 4.90483 143.169 4.90483C142.771 4.90483 142.416 4.98828 142.103 5.15518C141.794 5.31853 141.549 5.54581 141.368 5.837C141.191 6.12464 141.102 6.45312 141.102 6.82244V12H139.845Z" fill="white"/>
  <path d="M146.683 7.07812V12H145.426V3.81818H146.64V5.09659H146.747C146.939 4.6811 147.23 4.3473 147.621 4.09517C148.011 3.83949 148.515 3.71164 149.133 3.71164C149.687 3.71164 150.172 3.82528 150.588 4.05255C151.003 4.27627 151.326 4.61718 151.557 5.07528C151.788 5.52983 151.903 6.10511 151.903 6.80113V12H150.646V6.88636C150.646 6.2436 150.479 5.74289 150.145 5.38423C149.812 5.02201 149.354 4.8409 148.771 4.8409C148.37 4.8409 148.011 4.92791 147.695 5.10191C147.383 5.27592 147.136 5.52983 146.955 5.86363C146.774 6.19744 146.683 6.60227 146.683 7.07812Z" fill="white"/>
  <path d="M156.608 12.1918C156.09 12.1918 155.619 12.0941 155.196 11.8988C154.774 11.6999 154.438 11.4141 154.19 11.0412C153.941 10.6648 153.817 10.2102 153.817 9.67755C153.817 9.2088 153.909 8.82883 154.094 8.53764C154.279 8.24289 154.525 8.01207 154.834 7.84517C155.143 7.67826 155.484 7.55397 155.857 7.4723C156.233 7.38707 156.612 7.3196 156.992 7.26988C157.489 7.20596 157.892 7.15802 158.201 7.12606C158.513 7.09055 158.741 7.03196 158.883 6.95028C159.028 6.8686 159.101 6.72656 159.101 6.52414V6.48153C159.101 5.95596 158.957 5.54758 158.669 5.25639C158.385 4.9652 157.954 4.8196 157.375 4.8196C156.775 4.8196 156.304 4.95099 155.964 5.21377C155.623 5.47656 155.383 5.7571 155.244 6.05539L154.051 5.62926C154.264 5.1321 154.548 4.74502 154.904 4.46804C155.262 4.1875 155.653 3.99218 156.075 3.8821C156.502 3.76846 156.921 3.71164 157.332 3.71164C157.595 3.71164 157.897 3.7436 158.238 3.80752C158.582 3.86789 158.915 3.99396 159.234 4.18572C159.557 4.37748 159.825 4.6669 160.038 5.05397C160.252 5.44105 160.358 5.95951 160.358 6.60937V12H159.101V10.892H159.037C158.952 11.0696 158.81 11.2596 158.611 11.462C158.412 11.6644 158.147 11.8366 157.817 11.9787C157.487 12.1207 157.084 12.1918 156.608 12.1918ZM156.8 11.0625C157.297 11.0625 157.716 10.9648 158.057 10.7695C158.401 10.5742 158.661 10.3221 158.835 10.0131C159.012 9.70419 159.101 9.37926 159.101 9.03835V7.88778C159.048 7.9517 158.93 8.01029 158.749 8.06356C158.572 8.11328 158.366 8.15767 158.131 8.19673C157.901 8.23224 157.675 8.2642 157.455 8.29261C157.238 8.31747 157.063 8.33877 156.928 8.35653C156.601 8.39914 156.296 8.46839 156.011 8.56427C155.731 8.6566 155.504 8.79687 155.33 8.98508C155.159 9.16974 155.074 9.42187 155.074 9.74147C155.074 10.1783 155.236 10.5085 155.559 10.7322C155.885 10.9524 156.299 11.0625 156.8 11.0625Z" fill="white"/>
  <path d="M174.499 4.5C174.382 4.14133 174.227 3.81995 174.036 3.53586C173.847 3.24822 173.622 3.00319 173.359 2.80078C173.1 2.59836 172.805 2.44389 172.475 2.33735C172.145 2.23082 171.782 2.17755 171.388 2.17755C170.742 2.17755 170.154 2.34446 169.625 2.67826C169.096 3.01207 168.675 3.5039 168.363 4.15376C168.05 4.80362 167.894 5.60085 167.894 6.54545C167.894 7.49005 168.052 8.28728 168.368 8.93714C168.684 9.587 169.112 10.0788 169.652 10.4126C170.192 10.7464 170.799 10.9133 171.474 10.9133C172.099 10.9133 172.649 10.7802 173.125 10.5138C173.604 10.244 173.977 9.86399 174.243 9.37393C174.513 8.88032 174.648 8.29971 174.648 7.6321L175.053 7.71733H171.772V6.54545H175.927V7.71733C175.927 8.61576 175.735 9.39701 175.351 10.0611C174.971 10.7251 174.446 11.2401 173.775 11.6058C173.107 11.968 172.34 12.1491 171.474 12.1491C170.508 12.1491 169.659 11.9219 168.927 11.4673C168.199 11.0128 167.631 10.3665 167.223 9.52841C166.818 8.69034 166.616 7.69602 166.616 6.54545C166.616 5.68252 166.731 4.9066 166.962 4.21768C167.196 3.52521 167.526 2.93572 167.953 2.44921C168.379 1.96271 168.883 1.58984 169.465 1.33061C170.048 1.07137 170.689 0.941757 171.388 0.941757C171.964 0.941757 172.5 1.02876 172.997 1.20277C173.498 1.37322 173.943 1.61647 174.334 1.93252C174.728 2.24502 175.057 2.61967 175.319 3.05646C175.582 3.4897 175.763 3.97088 175.863 4.5H174.499Z" fill="white"/>
  <path d="M181.343 12.1705C180.604 12.1705 179.956 11.9947 179.398 11.6431C178.844 11.2915 178.411 10.7997 178.099 10.1676C177.79 9.53551 177.635 8.79687 177.635 7.9517C177.635 7.09943 177.79 6.35546 178.099 5.71981C178.411 5.08416 178.844 4.59055 179.398 4.23899C179.956 3.88743 180.604 3.71164 181.343 3.71164C182.081 3.71164 182.728 3.88743 183.282 4.23899C183.839 4.59055 184.272 5.08416 184.581 5.71981C184.894 6.35546 185.05 7.09943 185.05 7.9517C185.05 8.79687 184.894 9.53551 184.581 10.1676C184.272 10.7997 183.839 11.2915 183.282 11.6431C182.728 11.9947 182.081 12.1705 181.343 12.1705ZM181.343 11.0412C181.904 11.0412 182.365 10.8974 182.728 10.6097C183.09 10.3221 183.358 9.94389 183.532 9.47514C183.706 9.00639 183.793 8.49858 183.793 7.9517C183.793 7.40483 183.706 6.89524 183.532 6.42294C183.358 5.95064 183.09 5.56889 182.728 5.27769C182.365 4.9865 181.904 4.8409 181.343 4.8409C180.782 4.8409 180.32 4.9865 179.958 5.27769C179.595 5.56889 179.327 5.95064 179.153 6.42294C178.979 6.89524 178.892 7.40483 178.892 7.9517C178.892 8.49858 178.979 9.00639 179.153 9.47514C179.327 9.94389 179.595 10.3221 179.958 10.6097C180.32 10.8974 180.782 11.0412 181.343 11.0412Z" fill="white"/>
  <path d="M186.969 12V3.81818H188.183V5.05397H188.269C188.418 4.64914 188.688 4.32066 189.078 4.06853C189.469 3.8164 189.909 3.69034 190.399 3.69034C190.492 3.69034 190.607 3.69211 190.746 3.69566C190.884 3.69921 190.989 3.70454 191.06 3.71164V4.99005C191.017 4.9794 190.92 4.96342 190.767 4.94211C190.618 4.91725 190.46 4.90483 190.293 4.90483C189.895 4.90483 189.54 4.98828 189.227 5.15518C188.918 5.31853 188.673 5.54581 188.492 5.837C188.315 6.12464 188.226 6.45312 188.226 6.82244V12H186.969Z" fill="white"/>
  <path d="M194.958 12.1918C194.439 12.1918 193.969 12.0941 193.546 11.8988C193.123 11.6999 192.788 11.4141 192.539 11.0412C192.291 10.6648 192.166 10.2102 192.166 9.67755C192.166 9.2088 192.259 8.82883 192.443 8.53764C192.628 8.24289 192.875 8.01207 193.184 7.84517C193.493 7.67826 193.834 7.55397 194.207 7.4723C194.583 7.38707 194.961 7.3196 195.341 7.26988C195.838 7.20596 196.241 7.15802 196.55 7.12606C196.863 7.09055 197.09 7.03196 197.232 6.95028C197.378 6.8686 197.451 6.72656 197.451 6.52414V6.48153C197.451 5.95596 197.307 5.54758 197.019 5.25639C196.735 4.9652 196.304 4.8196 195.725 4.8196C195.125 4.8196 194.654 4.95099 194.313 5.21377C193.972 5.47656 193.733 5.7571 193.594 6.05539L192.401 5.62926C192.614 5.1321 192.898 4.74502 193.253 4.46804C193.612 4.1875 194.002 3.99218 194.425 3.8821C194.851 3.76846 195.27 3.71164 195.682 3.71164C195.945 3.71164 196.247 3.7436 196.588 3.80752C196.932 3.86789 197.264 3.99396 197.584 4.18572C197.907 4.37748 198.175 4.6669 198.388 5.05397C198.601 5.44105 198.708 5.95951 198.708 6.60937V12H197.451V10.892H197.387C197.301 11.0696 197.159 11.2596 196.96 11.462C196.762 11.6644 196.497 11.8366 196.167 11.9787C195.837 12.1207 195.434 12.1918 194.958 12.1918ZM195.149 11.0625C195.647 11.0625 196.066 10.9648 196.407 10.7695C196.751 10.5742 197.01 10.3221 197.184 10.0131C197.362 9.70419 197.451 9.37926 197.451 9.03835V7.88778C197.397 7.9517 197.28 8.01029 197.099 8.06356C196.921 8.11328 196.715 8.15767 196.481 8.19673C196.25 8.23224 196.025 8.2642 195.805 8.29261C195.588 8.31747 195.412 8.33877 195.277 8.35653C194.951 8.39914 194.645 8.46839 194.361 8.56427C194.081 8.6566 193.853 8.79687 193.679 8.98508C193.509 9.16974 193.424 9.42187 193.424 9.74147C193.424 10.1783 193.585 10.5085 193.908 10.7322C194.235 10.9524 194.649 11.0625 195.149 11.0625Z" fill="white"/>
  <path d="M0.875 11H5.5L16.375 37.5625H16.75L27.625 11H32.25V43H28.625V18.6875H28.3125L18.3125 43H14.8125L4.8125 18.6875H4.5V43H0.875V11Z" fill="white"/>
  <path d="M49.582 43.5C47.2695 43.5 45.2747 42.9896 43.5977 41.9687C41.931 40.9375 40.6445 39.5 39.7383 37.6562C38.8424 35.8021 38.3945 33.6458 38.3945 31.1875C38.3945 28.7292 38.8424 26.5625 39.7383 24.6875C40.6445 22.8021 41.9049 21.3333 43.5195 20.2812C45.1445 19.2187 47.0404 18.6875 49.207 18.6875C50.457 18.6875 51.6914 18.8958 52.9102 19.3125C54.1289 19.7292 55.2383 20.4062 56.2383 21.3437C57.2383 22.2708 58.0352 23.5 58.6289 25.0312C59.2227 26.5625 59.5195 28.4479 59.5195 30.6875V32.25H41.0195V29.0625H55.7695C55.7695 27.7083 55.4987 26.5 54.957 25.4375C54.4258 24.375 53.6654 23.5365 52.6758 22.9219C51.6966 22.3073 50.5404 22 49.207 22C47.7383 22 46.4674 22.3646 45.3945 23.0937C44.332 23.8125 43.5143 24.75 42.9414 25.9062C42.3685 27.0625 42.082 28.3021 42.082 29.625V31.75C42.082 33.5625 42.3945 35.099 43.0195 36.3594C43.6549 37.6094 44.5352 38.5625 45.6602 39.2187C46.7852 39.8646 48.0924 40.1875 49.582 40.1875C50.5508 40.1875 51.4258 40.0521 52.207 39.7812C52.9987 39.5 53.681 39.0833 54.2539 38.5312C54.8268 37.9687 55.2695 37.2708 55.582 36.4375L59.1445 37.4375C58.7695 38.6458 58.1393 39.7083 57.2539 40.625C56.3685 41.5312 55.2747 42.2396 53.9727 42.75C52.6706 43.25 51.207 43.5 49.582 43.5Z" fill="white"/>
  <path d="M82.1289 24.375L78.8164 25.3125C78.6081 24.7604 78.3008 24.224 77.8945 23.7031C77.4987 23.1719 76.957 22.7344 76.2695 22.3906C75.582 22.0469 74.7018 21.875 73.6289 21.875C72.1602 21.875 70.9362 22.2135 69.957 22.8906C68.9883 23.5573 68.5039 24.4062 68.5039 25.4375C68.5039 26.3542 68.8372 27.0781 69.5039 27.6094C70.1706 28.1406 71.2122 28.5833 72.6289 28.9375L76.1914 29.8125C78.3372 30.3333 79.9362 31.1302 80.9883 32.2031C82.0404 33.2656 82.5664 34.6354 82.5664 36.3125C82.5664 37.6875 82.1706 38.9167 81.3789 40C80.5977 41.0833 79.5039 41.9375 78.0977 42.5625C76.6914 43.1875 75.056 43.5 73.1914 43.5C70.7435 43.5 68.7174 42.9687 67.1133 41.9062C65.5091 40.8437 64.4935 39.2917 64.0664 37.25L67.5664 36.375C67.8997 37.6667 68.5299 38.6354 69.457 39.2812C70.3945 39.9271 71.6185 40.25 73.1289 40.25C74.8477 40.25 76.2122 39.8854 77.2227 39.1562C78.2435 38.4167 78.7539 37.5312 78.7539 36.5C78.7539 35.6667 78.4622 34.9687 77.8789 34.4062C77.2956 33.8333 76.3997 33.4062 75.1914 33.125L71.1914 32.1875C68.9935 31.6667 67.3789 30.8594 66.3477 29.7656C65.3268 28.6615 64.8164 27.2812 64.8164 25.625C64.8164 24.2708 65.1966 23.0729 65.957 22.0312C66.7279 20.9896 67.7747 20.1719 69.0977 19.5781C70.431 18.9844 71.9414 18.6875 73.6289 18.6875C76.0039 18.6875 77.8685 19.2083 79.2227 20.25C80.5872 21.2917 81.556 22.6667 82.1289 24.375Z" fill="white"/>
  <path d="M98.5547 19V22.125H86.1172V19H98.5547ZM89.7422 13.25H93.4297V36.125C93.4297 37.1667 93.5807 37.9479 93.8828 38.4687C94.1953 38.9792 94.5911 39.3229 95.0703 39.5C95.5599 39.6667 96.0755 39.75 96.6172 39.75C97.0234 39.75 97.3568 39.7292 97.6172 39.6875C97.8776 39.6354 98.0859 39.5937 98.2422 39.5625L98.9922 42.875C98.7422 42.9687 98.3932 43.0625 97.9453 43.1562C97.4974 43.2604 96.9297 43.3125 96.2422 43.3125C95.2005 43.3125 94.1797 43.0885 93.1797 42.6406C92.1901 42.1927 91.3672 41.5104 90.7109 40.5937C90.0651 39.6771 89.7422 38.5208 89.7422 37.125V13.25Z" fill="white"/>
  <path d="M113.594 43.5C111.427 43.5 109.526 42.9844 107.891 41.9531C106.266 40.9219 104.995 39.4792 104.078 37.625C103.172 35.7708 102.719 33.6042 102.719 31.125C102.719 28.625 103.172 26.4427 104.078 24.5781C104.995 22.7135 106.266 21.2656 107.891 20.2344C109.526 19.2031 111.427 18.6875 113.594 18.6875C115.76 18.6875 117.656 19.2031 119.281 20.2344C120.917 21.2656 122.188 22.7135 123.094 24.5781C124.01 26.4427 124.469 28.625 124.469 31.125C124.469 33.6042 124.01 35.7708 123.094 37.625C122.188 39.4792 120.917 40.9219 119.281 41.9531C117.656 42.9844 115.76 43.5 113.594 43.5ZM113.594 40.1875C115.24 40.1875 116.594 39.7656 117.656 38.9219C118.719 38.0781 119.505 36.9687 120.016 35.5937C120.526 34.2187 120.781 32.7292 120.781 31.125C120.781 29.5208 120.526 28.026 120.016 26.6406C119.505 25.2552 118.719 24.1354 117.656 23.2812C116.594 22.4271 115.24 22 113.594 22C111.948 22 110.594 22.4271 109.531 23.2812C108.469 24.1354 107.682 25.2552 107.172 26.6406C106.661 28.026 106.406 29.5208 106.406 31.125C106.406 32.7292 106.661 34.2187 107.172 35.5937C107.682 36.9687 108.469 38.0781 109.531 38.9219C110.594 39.7656 111.948 40.1875 113.594 40.1875Z" fill="white"/>
  </svg>
  