<svg  viewBox="0 0 205 44" fill="none" xmlns="http://www.w3.org/2000/svg">
  
<!-- 
  <svg  viewBox="0 0 143 34" fill="none" xmlns="http://www.w3.org/2000/svg">
<path d="M0.876404 6.81818V33H4.63493V14.0412H4.87782L12.5994 32.9616H15.7187L23.4403 14.054H23.6832V33H27.4417V6.81818H22.6477L14.3125 27.1705H14.0057L5.67044 6.81818H0.876404Z" fill="white"/>
<path d="M42.0092 33.3963C46.2919 33.3963 49.3217 31.2869 50.191 28.0909L46.5731 27.4389C45.8828 29.2926 44.2209 30.2386 42.0476 30.2386C38.7748 30.2386 36.576 28.1165 36.4737 24.3324H50.4339V22.9773C50.4339 15.8821 46.1896 13.108 41.7408 13.108C36.2692 13.108 32.664 17.2756 32.664 23.3097C32.664 29.4077 36.218 33.3963 42.0092 33.3963ZM36.4865 21.4688C36.6399 18.6818 38.6598 16.2656 41.7663 16.2656C44.7322 16.2656 46.6754 18.4645 46.6882 21.4688H36.4865Z" fill="white"/>
<path d="M69.3895 18.1577C68.5969 15.1023 66.2063 13.108 61.962 13.108C57.5259 13.108 54.381 15.4474 54.381 18.9247C54.381 21.7116 56.0685 23.5653 59.7503 24.3835L63.0742 25.1122C64.9662 25.5341 65.8484 26.3778 65.8484 27.6051C65.8484 29.1264 64.2248 30.3153 61.7191 30.3153C59.4307 30.3153 57.9606 29.331 57.5003 27.4006L53.8057 27.9631C54.4449 31.4403 57.3341 33.3963 61.7447 33.3963C66.4876 33.3963 69.7731 30.8778 69.7731 27.3239C69.7731 24.5497 68.0089 22.8366 64.4037 22.0057L61.2844 21.2898C59.1239 20.7784 58.1907 20.0497 58.2035 18.7202C58.1907 17.2116 59.827 16.1378 62.0003 16.1378C64.3782 16.1378 65.4776 17.4545 65.9251 18.7713L69.3895 18.1577Z" fill="white"/>
<path d="M83.142 13.3636H79.115V8.65909H75.2926V13.3636H72.4162V16.4318H75.2926V28.027C75.2798 31.5938 78.0028 33.3196 81.0199 33.2557C82.2344 33.2429 83.0525 33.0128 83.5 32.8466L82.8096 29.6889C82.554 29.7401 82.081 29.8551 81.4673 29.8551C80.2273 29.8551 79.115 29.446 79.115 27.2344V16.4318H83.142V13.3636Z" fill="white"/>
<path d="M95.4307 33.3963C100.966 33.3963 104.584 29.3438 104.584 23.2713C104.584 17.1605 100.966 13.108 95.4307 13.108C89.8952 13.108 86.2773 17.1605 86.2773 23.2713C86.2773 29.3438 89.8952 33.3963 95.4307 33.3963ZM95.4435 30.1875C91.8256 30.1875 90.1381 27.0298 90.1381 23.2585C90.1381 19.5 91.8256 16.304 95.4435 16.304C99.0359 16.304 100.723 19.5 100.723 23.2585C100.723 27.0298 99.0359 30.1875 95.4435 30.1875Z" fill="white"/>

<path d="M108.057 9H109.114V5.59091H111.023C111.099 5.59091 111.172 5.59091 111.244 5.58665L113.085 9H114.312L112.339 5.39489C113.452 5.01562 113.972 4.10795 113.972 2.94886C113.972 1.40625 113.051 0.272727 111.006 0.272727H108.057V9ZM109.114 4.63636V1.21023H110.972C112.386 1.21023 112.932 1.90057 112.932 2.94886C112.932 3.99716 112.386 4.63636 110.989 4.63636H109.114Z" fill="white"/>
<path d="M119.721 6.32386C119.721 7.55114 118.784 8.11364 118.034 8.11364C117.198 8.11364 116.602 7.5 116.602 6.54545V2.45455H115.596V6.61364C115.596 8.28409 116.483 9.08523 117.71 9.08523C118.698 9.08523 119.346 8.55682 119.653 7.89205H119.721V9H120.727V2.45455H119.721V6.32386Z" fill="white"/>
<path d="M127.205 3.92045C126.89 2.99148 126.183 2.36932 124.887 2.36932C123.506 2.36932 122.484 3.15341 122.484 4.26136C122.484 5.16477 123.021 5.76989 124.222 6.05114L125.313 6.30682C125.974 6.46023 126.285 6.77557 126.285 7.22727C126.285 7.78977 125.688 8.25 124.751 8.25C123.928 8.25 123.413 7.89631 123.234 7.19318L122.279 7.43182C122.513 8.54403 123.43 9.13636 124.768 9.13636C126.289 9.13636 127.325 8.3054 127.325 7.17614C127.325 6.2642 126.754 5.68892 125.586 5.40341L124.614 5.16477C123.839 4.97301 123.489 4.71307 123.489 4.21023C123.489 3.64773 124.086 3.23864 124.887 3.23864C125.765 3.23864 126.127 3.72443 126.302 4.17614L127.205 3.92045Z" fill="white"/>
<path d="M133.475 3.92045C133.159 2.99148 132.452 2.36932 131.157 2.36932C129.776 2.36932 128.753 3.15341 128.753 4.26136C128.753 5.16477 129.29 5.76989 130.492 6.05114L131.583 6.30682C132.243 6.46023 132.554 6.77557 132.554 7.22727C132.554 7.78977 131.958 8.25 131.02 8.25C130.198 8.25 129.682 7.89631 129.503 7.19318L128.549 7.43182C128.783 8.54403 129.699 9.13636 131.037 9.13636C132.559 9.13636 133.594 8.3054 133.594 7.17614C133.594 6.2642 133.023 5.68892 131.855 5.40341L130.884 5.16477C130.108 4.97301 129.759 4.71307 129.759 4.21023C129.759 3.64773 130.355 3.23864 131.157 3.23864C132.034 3.23864 132.397 3.72443 132.571 4.17614L133.475 3.92045Z" fill="white"/>
<path d="M135.108 9H136.114V2.45455H135.108V9ZM135.619 1.36364C136.011 1.36364 136.335 1.05682 136.335 0.681818C136.335 0.306818 136.011 0 135.619 0C135.227 0 134.903 0.306818 134.903 0.681818C134.903 1.05682 135.227 1.36364 135.619 1.36364Z" fill="white"/>
<path d="M139.882 9.15341C141.024 9.15341 141.62 8.53977 141.825 8.11364H141.876V9H142.882V4.6875C142.882 2.60795 141.296 2.36932 140.461 2.36932C139.473 2.36932 138.348 2.71023 137.836 3.90341L138.791 4.24432C139.012 3.76705 139.537 3.25568 140.495 3.25568C141.42 3.25568 141.876 3.74574 141.876 4.58523V4.61932C141.876 5.10511 141.382 5.0625 140.189 5.21591C138.974 5.37358 137.649 5.64205 137.649 7.14205C137.649 8.42045 138.637 9.15341 139.882 9.15341ZM140.035 8.25C139.234 8.25 138.654 7.89205 138.654 7.19318C138.654 6.42614 139.353 6.1875 140.137 6.08523C140.564 6.03409 141.706 5.91477 141.876 5.71023V6.63068C141.876 7.44886 141.228 8.25 140.035 8.25Z" fill="white"/>
-->


  <path d="M135.349 4.50001H134.028C133.95 4.12004 133.814 3.78623 133.618 3.49859C133.426 3.21095 133.192 2.96947 132.915 2.77416C132.642 2.5753 132.338 2.42615 132.004 2.32672C131.67 2.22728 131.322 2.17757 130.96 2.17757C130.3 2.17757 129.701 2.34447 129.165 2.67828C128.632 3.01209 128.208 3.50392 127.892 4.15378C127.58 4.80363 127.423 5.60086 127.423 6.54547C127.423 7.49007 127.58 8.2873 127.892 8.93716C128.208 9.58701 128.632 10.0788 129.165 10.4127C129.701 10.7465 130.3 10.9134 130.96 10.9134C131.322 10.9134 131.67 10.8636 132.004 10.7642C132.338 10.6648 132.642 10.5174 132.915 10.3221C133.192 10.1232 133.426 9.87998 133.618 9.59234C133.814 9.30115 133.95 8.96734 134.028 8.59092H135.349C135.25 9.14845 135.069 9.64738 134.806 10.0877C134.543 10.5281 134.217 10.9027 133.826 11.2117C133.435 11.5171 132.997 11.7497 132.51 11.9095C132.027 12.0693 131.511 12.1492 130.96 12.1492C130.03 12.1492 129.202 11.9219 128.478 11.4673C127.754 11.0128 127.184 10.3665 126.768 9.52842C126.353 8.69035 126.145 7.69603 126.145 6.54547C126.145 5.3949 126.353 4.40058 126.768 3.56251C127.184 2.72444 127.754 2.07814 128.478 1.62359C129.202 1.16905 130.03 0.941772 130.96 0.941772C131.511 0.941772 132.027 1.02167 132.51 1.18147C132.997 1.34128 133.435 1.57565 133.826 1.8846C134.217 2.19 134.543 2.56287 134.806 3.00321C135.069 3.44 135.25 3.93893 135.349 4.50001Z" fill="white"/>
  <path d="M140.744 12.1705C139.956 12.1705 139.276 11.9965 138.704 11.6484C138.136 11.2969 137.697 10.8068 137.388 10.1783C137.083 9.54618 136.93 8.81109 136.93 7.97302C136.93 7.13495 137.083 6.39632 137.388 5.75711C137.697 5.11436 138.127 4.61365 138.677 4.25498C139.231 3.89277 139.878 3.71166 140.616 3.71166C141.042 3.71166 141.463 3.78268 141.879 3.92473C142.294 4.06677 142.672 4.2976 143.013 4.6172C143.354 4.93325 143.626 5.35228 143.828 5.8743C144.031 6.39632 144.132 7.03907 144.132 7.80257V8.33524H137.825V7.24859H142.853C142.853 6.78694 142.761 6.37501 142.576 6.0128C142.395 5.65058 142.136 5.36471 141.799 5.1552C141.465 4.94568 141.071 4.84092 140.616 4.84092C140.116 4.84092 139.682 4.96521 139.316 5.21379C138.954 5.45882 138.676 5.77842 138.48 6.1726C138.285 6.56677 138.187 6.98936 138.187 7.44035V8.16478C138.187 8.78268 138.294 9.30647 138.507 9.73616C138.723 10.1623 139.024 10.4872 139.407 10.7109C139.791 10.9311 140.236 11.0412 140.744 11.0412C141.074 11.0412 141.373 10.995 141.639 10.9027C141.909 10.8068 142.141 10.6648 142.337 10.4766C142.532 10.2848 142.683 10.0469 142.79 9.7628L144.004 10.1037C143.876 10.5156 143.661 10.8779 143.359 11.1904C143.058 11.4993 142.685 11.7408 142.241 11.9148C141.797 12.0852 141.298 12.1705 140.744 12.1705Z" fill="white"/>
  <path d="M146.044 12V3.81819H147.259V5.05399H147.344C147.493 4.64916 147.763 4.32068 148.154 4.06855C148.544 3.81642 148.984 3.69035 149.475 3.69035C149.567 3.69035 149.682 3.69213 149.821 3.69568C149.959 3.69923 150.064 3.70456 150.135 3.71166V4.99007C150.092 4.97941 149.995 4.96343 149.842 4.94213C149.693 4.91727 149.535 4.90484 149.368 4.90484C148.97 4.90484 148.615 4.98829 148.303 5.1552C147.994 5.31855 147.749 5.54582 147.568 5.83701C147.39 6.12466 147.301 6.45314 147.301 6.82245V12H146.044Z" fill="white"/>
  <path d="M152.882 7.07814V12H151.625V3.81819H152.84V5.0966H152.946C153.138 4.68112 153.429 4.34731 153.82 4.09518C154.21 3.8395 154.715 3.71166 155.333 3.71166C155.887 3.71166 156.371 3.8253 156.787 4.05257C157.202 4.27629 157.525 4.6172 157.756 5.0753C157.987 5.52984 158.102 6.10513 158.102 6.80115V12H156.845V6.88637C156.845 6.24362 156.678 5.74291 156.345 5.38424C156.011 5.02203 155.553 4.84092 154.97 4.84092C154.569 4.84092 154.21 4.92792 153.894 5.10193C153.582 5.27593 153.335 5.52984 153.154 5.86365C152.973 6.19745 152.882 6.60228 152.882 7.07814Z" fill="white"/>
  <path d="M162.807 12.1918C162.289 12.1918 161.818 12.0941 161.396 11.8988C160.973 11.6999 160.638 11.4141 160.389 11.0412C160.14 10.6648 160.016 10.2102 160.016 9.67757C160.016 9.20882 160.108 8.82885 160.293 8.53765C160.478 8.24291 160.725 8.01208 161.033 7.84518C161.342 7.67828 161.683 7.55399 162.056 7.47231C162.433 7.38709 162.811 7.31961 163.191 7.2699C163.688 7.20598 164.091 7.15804 164.4 7.12608C164.712 7.09057 164.94 7.03197 165.082 6.9503C165.227 6.86862 165.3 6.72657 165.3 6.52416V6.48155C165.3 5.95598 165.156 5.5476 164.869 5.2564C164.585 4.96521 164.153 4.81961 163.574 4.81961C162.974 4.81961 162.504 4.95101 162.163 5.21379C161.822 5.47657 161.582 5.75711 161.444 6.05541L160.25 5.62927C160.464 5.13211 160.748 4.74504 161.103 4.46805C161.461 4.18751 161.852 3.9922 162.275 3.88211C162.701 3.76848 163.12 3.71166 163.532 3.71166C163.794 3.71166 164.096 3.74362 164.437 3.80754C164.782 3.86791 165.114 3.99397 165.433 4.18574C165.756 4.3775 166.025 4.66691 166.238 5.05399C166.451 5.44106 166.557 5.95953 166.557 6.60939V12H165.3V10.8921H165.236C165.151 11.0696 165.009 11.2596 164.81 11.462C164.611 11.6644 164.347 11.8367 164.016 11.9787C163.686 12.1207 163.283 12.1918 162.807 12.1918ZM162.999 11.0625C163.496 11.0625 163.915 10.9649 164.256 10.7695C164.601 10.5742 164.86 10.3221 165.034 10.0132C165.211 9.7042 165.3 9.37927 165.3 9.03836V7.8878C165.247 7.95172 165.13 8.01031 164.949 8.06358C164.771 8.11329 164.565 8.15768 164.331 8.19674C164.1 8.23226 163.874 8.26422 163.654 8.29262C163.438 8.31748 163.262 8.33879 163.127 8.35655C162.8 8.39916 162.495 8.46841 162.211 8.56429C161.93 8.65662 161.703 8.79689 161.529 8.9851C161.358 9.16976 161.273 9.42189 161.273 9.74149C161.273 10.1783 161.435 10.5085 161.758 10.7323C162.085 10.9524 162.498 11.0625 162.999 11.0625Z" fill="white"/>
  <path d="M180.698 4.50001C180.581 4.14135 180.427 3.81997 180.235 3.53588C180.047 3.24824 179.821 3.00321 179.558 2.80079C179.299 2.59838 179.004 2.4439 178.674 2.33737C178.344 2.23083 177.982 2.17757 177.588 2.17757C176.941 2.17757 176.354 2.34447 175.824 2.67828C175.295 3.01209 174.874 3.50392 174.562 4.15378C174.249 4.80363 174.093 5.60086 174.093 6.54547C174.093 7.49007 174.251 8.2873 174.567 8.93716C174.883 9.58701 175.311 10.0788 175.851 10.4127C176.391 10.7465 176.998 10.9134 177.673 10.9134C178.298 10.9134 178.848 10.7802 179.324 10.5139C179.803 10.244 180.176 9.864 180.443 9.37395C180.713 8.88034 180.847 8.29973 180.847 7.63211L181.252 7.71734H177.971V6.54547H182.126V7.71734C182.126 8.61578 181.934 9.39703 181.551 10.0611C181.171 10.7252 180.645 11.2401 179.974 11.6058C179.306 11.9681 178.539 12.1492 177.673 12.1492C176.707 12.1492 175.858 11.9219 175.127 11.4673C174.399 11.0128 173.83 10.3665 173.422 9.52842C173.017 8.69035 172.815 7.69603 172.815 6.54547C172.815 5.68254 172.93 4.90662 173.161 4.2177C173.395 3.52522 173.726 2.93574 174.152 2.44923C174.578 1.96272 175.082 1.58986 175.665 1.33062C176.247 1.07139 176.888 0.941772 177.588 0.941772C178.163 0.941772 178.699 1.02878 179.196 1.20278C179.697 1.37324 180.143 1.61649 180.533 1.93254C180.927 2.24504 181.256 2.61968 181.519 3.05647C181.781 3.48971 181.963 3.97089 182.062 4.50001H180.698Z" fill="white"/>
  <path d="M187.542 12.1705C186.803 12.1705 186.155 11.9947 185.598 11.6431C185.044 11.2916 184.61 10.7997 184.298 10.1676C183.989 9.53552 183.834 8.79689 183.834 7.95172C183.834 7.09944 183.989 6.35548 184.298 5.71983C184.61 5.08417 185.044 4.59057 185.598 4.239C186.155 3.88744 186.803 3.71166 187.542 3.71166C188.28 3.71166 188.927 3.88744 189.481 4.239C190.038 4.59057 190.472 5.08417 190.78 5.71983C191.093 6.35548 191.249 7.09944 191.249 7.95172C191.249 8.79689 191.093 9.53552 190.78 10.1676C190.472 10.7997 190.038 11.2916 189.481 11.6431C188.927 11.9947 188.28 12.1705 187.542 12.1705ZM187.542 11.0412C188.103 11.0412 188.565 10.8974 188.927 10.6097C189.289 10.3221 189.557 9.9439 189.731 9.47515C189.905 9.0064 189.992 8.49859 189.992 7.95172C189.992 7.40484 189.905 6.89525 189.731 6.42295C189.557 5.95065 189.289 5.5689 188.927 5.27771C188.565 4.98652 188.103 4.84092 187.542 4.84092C186.981 4.84092 186.519 4.98652 186.157 5.27771C185.795 5.5689 185.527 5.95065 185.353 6.42295C185.179 6.89525 185.092 7.40484 185.092 7.95172C185.092 8.49859 185.179 9.0064 185.353 9.47515C185.527 9.9439 185.795 10.3221 186.157 10.6097C186.519 10.8974 186.981 11.0412 187.542 11.0412Z" fill="white"/>
  <path d="M193.168 12V3.81819H194.383V5.05399H194.468C194.617 4.64916 194.887 4.32068 195.278 4.06855C195.668 3.81642 196.108 3.69035 196.599 3.69035C196.691 3.69035 196.806 3.69213 196.945 3.69568C197.083 3.69923 197.188 3.70456 197.259 3.71166V4.99007C197.216 4.97941 197.119 4.96343 196.966 4.94213C196.817 4.91727 196.659 4.90484 196.492 4.90484C196.094 4.90484 195.739 4.98829 195.427 5.1552C195.118 5.31855 194.873 5.54582 194.692 5.83701C194.514 6.12466 194.425 6.45314 194.425 6.82245V12H193.168Z" fill="white"/>
  <path d="M201.157 12.1918C200.638 12.1918 200.168 12.0941 199.745 11.8988C199.323 11.6999 198.987 11.4141 198.739 11.0412C198.49 10.6648 198.366 10.2102 198.366 9.67757C198.366 9.20882 198.458 8.82885 198.643 8.53765C198.827 8.24291 199.074 8.01208 199.383 7.84518C199.692 7.67828 200.033 7.55399 200.406 7.47231C200.782 7.38709 201.16 7.31961 201.54 7.2699C202.038 7.20598 202.441 7.15804 202.75 7.12608C203.062 7.09057 203.289 7.03197 203.431 6.9503C203.577 6.86862 203.65 6.72657 203.65 6.52416V6.48155C203.65 5.95598 203.506 5.5476 203.218 5.2564C202.934 4.96521 202.503 4.81961 201.924 4.81961C201.324 4.81961 200.853 4.95101 200.512 5.21379C200.171 5.47657 199.932 5.75711 199.793 6.05541L198.6 5.62927C198.813 5.13211 199.097 4.74504 199.452 4.46805C199.811 4.18751 200.202 3.9922 200.624 3.88211C201.05 3.76848 201.469 3.71166 201.881 3.71166C202.144 3.71166 202.446 3.74362 202.787 3.80754C203.131 3.86791 203.463 3.99397 203.783 4.18574C204.106 4.3775 204.374 4.66691 204.587 5.05399C204.8 5.44106 204.907 5.95953 204.907 6.60939V12H203.65V10.8921H203.586C203.501 11.0696 203.359 11.2596 203.16 11.462C202.961 11.6644 202.696 11.8367 202.366 11.9787C202.036 12.1207 201.633 12.1918 201.157 12.1918ZM201.349 11.0625C201.846 11.0625 202.265 10.9649 202.606 10.7695C202.95 10.5742 203.209 10.3221 203.383 10.0132C203.561 9.7042 203.65 9.37927 203.65 9.03836V7.8878C203.596 7.95172 203.479 8.01031 203.298 8.06358C203.121 8.11329 202.915 8.15768 202.68 8.19674C202.449 8.23226 202.224 8.26422 202.004 8.29262C201.787 8.31748 201.611 8.33879 201.476 8.35655C201.15 8.39916 200.844 8.46841 200.56 8.56429C200.28 8.65662 200.052 8.79689 199.878 8.9851C199.708 9.16976 199.623 9.42189 199.623 9.74149C199.623 10.1783 199.784 10.5085 200.108 10.7323C200.434 10.9524 200.848 11.0625 201.349 11.0625Z" fill="white"/>
  <path d="M0.875 11H5.5L16.375 37.5625H16.75L27.625 11H32.25V43H28.625V18.6875H28.3125L18.3125 43H14.8125L4.8125 18.6875H4.5V43H0.875V11Z" fill="white"/>
  <path d="M49.582 43.5C47.2695 43.5 45.2747 42.9896 43.5977 41.9688C41.931 40.9375 40.6445 39.5 39.7383 37.6563C38.8424 35.8021 38.3945 33.6458 38.3945 31.1875C38.3945 28.7292 38.8424 26.5625 39.7383 24.6875C40.6445 22.8021 41.9049 21.3333 43.5195 20.2813C45.1445 19.2188 47.0404 18.6875 49.207 18.6875C50.457 18.6875 51.6914 18.8958 52.9102 19.3125C54.1289 19.7292 55.2383 20.4063 56.2383 21.3438C57.2383 22.2708 58.0352 23.5 58.6289 25.0313C59.2227 26.5625 59.5195 28.4479 59.5195 30.6875V32.25H41.0195V29.0625H55.7695C55.7695 27.7083 55.4987 26.5 54.957 25.4375C54.4258 24.375 53.6654 23.5365 52.6758 22.9219C51.6966 22.3073 50.5404 22 49.207 22C47.7383 22 46.4674 22.3646 45.3945 23.0938C44.332 23.8125 43.5143 24.75 42.9414 25.9063C42.3685 27.0625 42.082 28.3021 42.082 29.625V31.75C42.082 33.5625 42.3945 35.099 43.0195 36.3594C43.6549 37.6094 44.5352 38.5625 45.6602 39.2188C46.7852 39.8646 48.0924 40.1875 49.582 40.1875C50.5508 40.1875 51.4258 40.0521 52.207 39.7813C52.9987 39.5 53.681 39.0833 54.2539 38.5313C54.8268 37.9688 55.2695 37.2708 55.582 36.4375L59.1445 37.4375C58.7695 38.6458 58.1393 39.7083 57.2539 40.625C56.3685 41.5313 55.2747 42.2396 53.9727 42.75C52.6706 43.25 51.207 43.5 49.582 43.5Z" fill="white"/>
  <path d="M82.1289 24.375L78.8164 25.3125C78.6081 24.7604 78.3008 24.224 77.8945 23.7031C77.4987 23.1719 76.957 22.7344 76.2695 22.3906C75.582 22.0469 74.7018 21.875 73.6289 21.875C72.1602 21.875 70.9362 22.2136 69.957 22.8906C68.9883 23.5573 68.5039 24.4063 68.5039 25.4375C68.5039 26.3542 68.8372 27.0781 69.5039 27.6094C70.1706 28.1406 71.2122 28.5833 72.6289 28.9375L76.1914 29.8125C78.3372 30.3333 79.9362 31.1302 80.9883 32.2031C82.0404 33.2656 82.5664 34.6354 82.5664 36.3125C82.5664 37.6875 82.1706 38.9167 81.3789 40C80.5977 41.0833 79.5039 41.9375 78.0977 42.5625C76.6914 43.1875 75.056 43.5 73.1914 43.5C70.7435 43.5 68.7174 42.9688 67.1133 41.9063C65.5091 40.8438 64.4935 39.2917 64.0664 37.25L67.5664 36.375C67.8997 37.6667 68.5299 38.6354 69.457 39.2813C70.3945 39.9271 71.6185 40.25 73.1289 40.25C74.8477 40.25 76.2122 39.8854 77.2227 39.1563C78.2435 38.4167 78.7539 37.5313 78.7539 36.5C78.7539 35.6667 78.4622 34.9688 77.8789 34.4063C77.2956 33.8333 76.3997 33.4063 75.1914 33.125L71.1914 32.1875C68.9935 31.6667 67.3789 30.8594 66.3477 29.7656C65.3268 28.6615 64.8164 27.2813 64.8164 25.625C64.8164 24.2708 65.1966 23.0729 65.957 22.0313C66.7279 20.9896 67.7747 20.1719 69.0977 19.5781C70.431 18.9844 71.9414 18.6875 73.6289 18.6875C76.0039 18.6875 77.8685 19.2083 79.2227 20.25C80.5872 21.2917 81.556 22.6667 82.1289 24.375Z" fill="white"/>
  <path d="M98.5547 19V22.125H86.1172V19H98.5547ZM89.7422 13.25H93.4297V36.125C93.4297 37.1667 93.5807 37.9479 93.8828 38.4688C94.1953 38.9792 94.5911 39.3229 95.0703 39.5C95.5599 39.6667 96.0755 39.75 96.6172 39.75C97.0234 39.75 97.3568 39.7292 97.6172 39.6875C97.8776 39.6354 98.0859 39.5938 98.2422 39.5625L98.9922 42.875C98.7422 42.9688 98.3932 43.0625 97.9453 43.1563C97.4974 43.2604 96.9297 43.3125 96.2422 43.3125C95.2005 43.3125 94.1797 43.0886 93.1797 42.6406C92.1901 42.1927 91.3672 41.5104 90.7109 40.5938C90.0651 39.6771 89.7422 38.5208 89.7422 37.125V13.25Z" fill="white"/>
  <path d="M113.594 43.5C111.427 43.5 109.526 42.9844 107.891 41.9531C106.266 40.9219 104.995 39.4792 104.078 37.625C103.172 35.7708 102.719 33.6042 102.719 31.125C102.719 28.625 103.172 26.4427 104.078 24.5781C104.995 22.7136 106.266 21.2656 107.891 20.2344C109.526 19.2031 111.427 18.6875 113.594 18.6875C115.76 18.6875 117.656 19.2031 119.281 20.2344C120.917 21.2656 122.188 22.7136 123.094 24.5781C124.01 26.4427 124.469 28.625 124.469 31.125C124.469 33.6042 124.01 35.7708 123.094 37.625C122.188 39.4792 120.917 40.9219 119.281 41.9531C117.656 42.9844 115.76 43.5 113.594 43.5ZM113.594 40.1875C115.24 40.1875 116.594 39.7656 117.656 38.9219C118.719 38.0781 119.505 36.9688 120.016 35.5938C120.526 34.2188 120.781 32.7292 120.781 31.125C120.781 29.5208 120.526 28.0261 120.016 26.6406C119.505 25.2552 118.719 24.1354 117.656 23.2813C116.594 22.4271 115.24 22 113.594 22C111.948 22 110.594 22.4271 109.531 23.2813C108.469 24.1354 107.682 25.2552 107.172 26.6406C106.661 28.0261 106.406 29.5208 106.406 31.125C106.406 32.7292 106.661 34.2188 107.172 35.5938C107.682 36.9688 108.469 38.0781 109.531 38.9219C110.594 39.7656 111.948 40.1875 113.594 40.1875Z" fill="white"/>
  </svg>
  